<svg version="1.1" id="Layer_1" xmlns="http://www.w3.org/2000/svg" xmlns:xlink="http://www.w3.org/1999/xlink" x="0px" y="0px"
	 width="100%" viewBox="0 0 1280 1280" enable-background="new 0 0 1280 1280" xml:space="preserve">
<path fill="#76EACF" opacity="1.000000" stroke="none" 
	d="
M358.672913,741.780884 
	C373.808105,717.686157 395.172028,701.065247 420.209015,687.208252 
	C412.464630,679.590454 404.540344,672.884644 397.905518,665.082336 
	C367.926666,629.828430 351.687988,588.987854 351.231781,542.603699 
	C350.804749,499.185120 367.784119,462.263428 394.942261,429.002991 
	C419.131989,399.377899 450.914185,385.180084 487.601532,380.321930 
	C537.272827,373.744354 585.290527,380.343262 630.982849,401.169495 
	C660.861267,414.787842 686.893555,433.721161 702.296570,463.519409 
	C729.870361,516.863220 736.925049,572.144165 714.060059,629.277649 
	C712.110229,634.149841 709.593933,638.795288 706.981384,644.303955 
	C710.871460,644.303955 714.157166,644.302002 717.442932,644.304260 
	C754.764282,644.329956 792.092590,643.925598 829.404663,644.527832 
	C856.069824,644.958130 882.537476,647.772827 908.242493,655.736328 
	C951.266235,669.065186 976.060181,698.472229 984.824341,742.057434 
	C989.260010,764.116516 990.841003,786.297119 985.505615,808.455444 
	C978.366333,838.105530 959.389343,858.387512 933.620483,873.118896 
	C908.088806,887.714722 880.305725,896.492676 852.056335,903.764893 
	C809.367004,914.754456 766.411499,924.725586 723.815918,936.057312 
	C697.946167,942.939453 672.740417,952.308960 646.887573,959.264893 
	C584.608643,976.021484 522.456055,976.208740 461.033691,954.862305 
	C428.167999,943.440369 399.175140,925.851868 374.941650,900.402466 
	C330.535461,853.768433 331.663086,785.401550 358.672913,741.780884 
z"/>
</svg>